<svg width="1938" height="405" viewBox="0 0 1938 405" fill="none" xmlns="http://www.w3.org/2000/svg">
<path d="M0 0C0 0 371.955 75.3488 969 75.3488C1566.05 75.3488 1938 0 1938 0V405C1938 405 1569.58 329.651 969 329.651C368.422 329.651 0 405 0 405V0Z" fill="#FFE350"/>
<path d="M0 0C0 0 371.955 75.3488 969 75.3488C1566.05 75.3488 1938 0 1938 0V405C1938 405 1569.58 329.651 969 329.651C368.422 329.651 0 405 0 405V0Z" fill="url(#paint0_linear_2026_16)"/>
<defs>
<linearGradient id="paint0_linear_2026_16" x1="1938" y1="0.000231026" x2="18.7067" y2="479.826" gradientUnits="userSpaceOnUse">
<stop stop-color="#001E2B"/>
<stop offset="1" stop-color="#00B9E3"/>
</linearGradient>
</defs>
</svg>
