<svg width="17" height="17" viewBox="0 0 17 17" fill="none" xmlns="http://www.w3.org/2000/svg">
<g clip-path="url(#clip0_1_133)">
<path d="M7.80055 0.660007C8.0895 -0.062451 9.07369 -0.0624502 9.36261 0.660009L11.0681 4.92409C11.19 5.22866 11.4654 5.43676 11.7816 5.46312L16.2083 5.83218C16.9583 5.89471 17.2625 6.86805 16.691 7.37709L13.3183 10.3815C13.0774 10.5961 12.9722 10.9328 13.0458 11.2536L14.0762 15.7458C14.2508 16.5069 13.4546 17.1085 12.8125 16.7007L9.0225 14.2934C8.75181 14.1214 8.41136 14.1214 8.14066 14.2934L4.35071 16.7007C3.70858 17.1085 2.91238 16.5069 3.08695 15.7458L4.11738 11.2536C4.19099 10.9328 4.08577 10.5961 3.84488 10.3815L0.472132 7.37709C-0.0993084 6.86805 0.204818 5.89471 0.954843 5.83218L5.38163 5.46312C5.69782 5.43676 5.97326 5.22866 6.09508 4.92409L7.80055 0.660007Z" fill="#FE8D63"/>
</g>
<defs>
<clipPath id="clip0_1_133">
<rect width="16.8125" height="16.8125" fill="white" transform="translate(0.175339 0.118164)"/>
</clipPath>
</defs>
</svg>
